<?xml version="1.0" encoding="utf-8"?>
<!-- Generator: Adobe Illustrator 21.0.2, SVG Export Plug-In . SVG Version: 6.00 Build 0)  -->
<svg version="1.1" id="logo-duoalborada" xmlns="http://www.w3.org/2000/svg" xmlns:xlink="http://www.w3.org/1999/xlink" width="160" height="110" x="0px" y="0px"
	 viewBox="0 0 420 356" style="enable-background:new 0 0 420 356;" xml:space="preserve">
<style type="text/css">
	.st0{fill:#1A171B;}
	.st1{fill:#F7B234;}
	.st2{fill:#E4342D;}
</style>
<path class="st0" d="M111,97.9c-1.4-4.7-3.8-8.6-6.9-11.8c-7.4-7.4-18-8.9-30.5-5C64,84.1,55.1,90,47,98.6
	c-8.6,9.1-13.7,18.9-15.1,29.3c-0.9,6.4-0.7,11.8,0.6,16.1c0.7,2.4,1.8,4.4,3.3,6.1c3.3,3.7,8.2,5.2,14,4.7l-2.1,15.8
	c-0.9,6.3-2.1,11.6-3.8,15.9c-1.7,4.3-3.8,7.9-6.4,11c-0.7,1-1.2,1.4-1.5,2.7c-0.1,0.3-0.1,0.7,0.1,1.2c0.2,0.9,1.2,1.6,1.9,1.7
	c0.7,0.1,1.1,0,1.6-0.1c0.6-0.2,1.2-0.3,1.7-0.5c0.2-0.1,0.5-0.2,0.9-0.3c9.8-3.1,19.5-8.2,29.1-15.3c10.6-7.8,19.4-17,26.3-27.4
	c7.9-11.7,12.7-24.1,14.5-37.1C113.5,112.8,113.2,104.6,111,97.9z M60.8,167.2l2.2-16.5c5-2.5,9.7-6.7,14.3-12.3
	c4.9-6.1,7.9-11.8,8.6-17.4c0.3-2.6,0.3-4.8-0.3-6.8c-0.1-0.4-0.3-0.9-0.5-1.3c-1.3-2.7-4.7-3.7-7.4-2.7c-2.6,0.9-3.7,3.1-4.8,5
	c-0.5,1-0.9,1.9-1.1,2.7c-0.1,0.4-0.2,0.7-0.3,1.1c0,0.4-0.2,0.4,0,1.5c0.1,0.3,0.3,0.8,0.9,1.2c0.5,0.4,1.4,0.4,1.9,0.3
	c0.2-0.1,0.4-0.1,0.5-0.2c0.3-0.2,0.6-0.4,1-0.5c0.1,0.5,0.1,1.2,0,2.2c-0.4,3.4-2.5,7.4-6.4,11.9c-1.8,2.1-3.5,3.7-4.9,4.9
	l3.9-28.5c0.1-0.7,0.4-1.8,1.1-3.1c0.7-1.4,1.6-3,2.8-5c0.3-0.6,0.4-1.1,0.5-1.6c0-0.4,0.1-0.7-0.1-1.4c-0.1-0.5-0.7-1.4-1.6-1.6
	c-0.8-0.2-1.2-0.1-1.5,0c-0.4,0.1-0.6,0.3-0.9,0.4c-0.7,0.4-5.3,2.5-9.2,8.2c-3.9,5.5-4.4,9.5-4.6,11.3l-3.6,26.5
	c-4.1,0.1-6.7-1-8.3-2.8c-0.7-0.9-1.3-2-1.8-3.4c-0.9-2.8-1.1-6.7-0.4-11.8c1.1-8.5,5.2-16.3,12.2-23.8c6.5-6.8,13.6-11.3,21.4-13.7
	c9.7-2.9,16-1.3,20.7,4.5c1.7,2.1,2.9,4.5,3.8,7.3c1.6,5,1.9,11.3,0.9,19c-1.5,11.4-5.2,22.3-11,32.7c-5.2,9.4-11.6,17.4-19.1,24.1
	c-5.2,4.6-10.4,8.1-15.5,10.5c1.1-2.1,2.1-4.4,3-6.8C58.9,176.5,60.1,171.9,60.8,167.2z"/>
<path class="st0" d="M153.4,126l0.8-6.1l-0.1-0.5l0,0c-0.9-1.9-2-1.5-2.3-1.6c-1.1,0-1.9,0.3-3,0.6c-0.8,0.2-1.5,0.5-2.2,0.8
	c-0.3,0.1-0.6,0.3-0.9,0.5c-0.3,0.3-0.8,0.2-1.2,1.8l-0.8,5.6l-3.9,28.4c-1,2.2-2.6,4.4-4.8,6.5c-2.3,2.2-4.4,3.5-6.4,4.1
	c-3,0.8-3.9,0.4-5.2-1.5c-0.3-0.5-0.6-1.1-0.8-1.8c-0.6-2.1-0.8-4.9-0.3-8.6c0.6-4.3,2-8.9,4.1-13.8c1.8-4.1,4.2-8.4,7.2-12.9
	c0.2-0.3,0.4-0.7,0.6-1.2c0.1-0.5,0.4-1,0.1-2c0,0,0-0.1-0.1-0.3c-0.2-0.3-0.4-0.8-1-1.1c-0.6-0.4-1.4-0.4-1.8-0.2
	c-0.7,0.2-0.7,0.4-1.1,0.6l-0.1,0.1l-0.1,0.1c-1.4,1.3-3.8,4.6-6.2,8.4c-2.3,3.7-5,8.9-5.5,9.9c-1.5,2.9-2.6,5.6-3.5,8.1
	c-1.1,3-1.8,6.1-2.2,9.3c-0.5,3.7-0.4,6.9,0.5,9.7c0.4,1.4,1,2.6,1.9,3.7c2.8,3.9,7.8,4.7,13.2,3c0.1,0,0.2-0.1,0.4-0.1
	c3.4-1,6.5-3.3,9.6-6.6c1-1.1,1.9-2.1,2.7-3.2c0.2,0.3,0.4,0.6,0.6,0.9c1,1.3,2.1,2.3,3.5,2.9c0.5,0.3,1.3,0.4,2.1,0.2
	c1-0.4,1.4-1,1.7-1.5c0.3-0.4,0.5-0.7,0.6-0.9c0.3-0.4,0.6-0.9,1-1.4s0.7-0.9,1-1.2c0.8-0.9,1-1.1,1.5-1.7l-1.8-1.1l0,0l1.9,1.1
	c0.2-0.3,0.4-0.7,0.5-1.3c0-0.3,0.1-0.6-0.1-1.2c-0.1-0.6-0.8-1.4-1.5-1.6c-0.5-0.2-0.9-0.5-1.2-0.7c-0.2-0.1-0.3-0.2-0.3-0.2l0,0
	c-0.1-0.2-0.3-0.4-0.4-0.8c-0.2-0.7-0.3-1.9-0.1-3.5L153.4,126z"/>
<path class="st0" d="M205.5,125.7l2.1,0.3c0.6-4.2,0.4-7.9-0.6-11.1c-0.8-2.5-2-4.7-3.8-6.5c-4.1-4.3-10-5.2-16.5-3.2
	c-6.5,2-12.3,6.3-17.4,12.7c-5.1,6.4-8.3,13.3-9.2,20.5c-0.6,4.2-0.4,7.9,0.6,11.1c0.8,2.5,2.1,4.7,3.9,6.5c4.1,4.2,10,5.1,16.4,3.1
	c0.1,0,0.2-0.1,0.3-0.1c6.3-2,12-6.2,17.1-12.5c5.2-6.5,8.4-13.4,9.4-20.6L205.5,125.7L205.5,125.7z M168.5,134.1
	c0.5-4,2.3-7.9,5.5-11.8c3.1-3.9,6.5-6.3,10.2-7.5c4.8-1.4,8.2-0.6,11.5,2.5c1.7,1.6,2.7,3.3,3.4,5.3c0.6,1.8,0.7,3.9,0.4,6.2l0,0
	c-0.7,5.2-2.7,9.7-6,13.7c-3.1,3.7-6.4,6-10.1,7.2c-4.7,1.4-8,0.6-11.2-2.4c-1.5-1.5-2.6-3.2-3.2-5.2
	C168.3,139.8,168.1,137.2,168.5,134.1z"/>
<path class="st0" d="M104,197.2c-0.2-0.8-0.9-1.4-1.4-1.5c-1.5-0.4-2,0-3.1,0.2c-9.8,3.1-19.3,9-28.3,17.7
	c-7.6,7.3-14.9,16.5-21.8,27.5c-1.9,0.2-4.1,0.8-6.8,1.6c-1.7,0.5-3.3,1.1-4.9,1.8c-1.6,0.7-3.1,1.3-4.5,2.1c-4,2.1-7.6,4.8-11,8.1
	c-5.1,5-8.2,10.3-9,16c-0.3,2.2-0.3,4.2,0.3,6c0.3,0.9,0.7,1.8,1.3,2.5c1.6,2.2,4.7,2.9,7.3,2c0.4-0.1,0.7-0.3,0.9-0.4l0,0
	c1.3-0.6,1.7-1.4,2.3-2.2c0.9-1.4,1.6-3.1,2.2-4.6c0.3-0.8,0.5-1.5,0.7-2.1c0.1-0.7,0.4-0.9,0.1-2.2c-0.1-0.3-0.3-0.8-0.9-1.2
	c-0.6-0.5-1.5-0.4-1.9-0.3c0,0,0,0-0.1,0c0-0.3,0-0.9,0.1-1.6c0.3-2.1,1.5-4.5,4-7.1c1.9-2,4-3.6,6.3-4.9c2.4-1.4,4.7-2.4,6.8-3
	c0.6-0.2,1.1-0.3,1.6-0.5c-2.7,5.7-5.2,11.9-7.4,18.7c-3.1,9.5-5.3,18.9-6.5,28c-0.6,4.5-1,9.2-1,14.1c-0.1,4.8-0.1,9.7-0.1,14.6
	c-0.1,4.1-0.2,7.1-0.4,9c-0.2,1.9-0.3,3.6-0.5,5.1c-0.1,0.5-0.1,1,0.1,1.8c0.1,0.4,0.5,1.1,1.2,1.4c0.7,0.4,1.4,0.3,1.8,0.2
	c0,0,0,0,0,0c1-0.4,1.3-0.8,1.8-1.3c1.4-1.9,2.2-4.5,3.8-17.2c1.5-12.6,1.5-14.1,1.8-19.6c0.2-3.1,0.8-8.4,1.8-15.9
	c0.9-6.7,2.9-14.3,6-22.7c2.2-5.9,4.6-11.4,7.2-16.6c3.3,0.5,6.2,1.4,8.8,2.7c2.9,1.5,5.3,3.6,7.4,6.3c2.2,3,3.9,6.4,5,10.1
	c0.7,2.2,1.2,4.4,1.5,6.9c0.6,4.6,0.6,9.6-0.2,14.8c0,0.2,0,0.3-0.1,0.4c-0.2,1.2-3,21.8-3,21.8l-0.2,1.7l1.7,0.6
	c0.6,0.2,2.1,0.5,5.3-0.5l-0.6-2.1l0,0l0.6,2.1c3.1-1,4.5-2.1,4.8-2.3l0.6-0.5l3.1-22.8l9.9-73.3c0.7-5.4,1.5-9.3,2.2-11.2
	c0.5-1.3,1.4-3.1,2.9-5.2c0.4-0.5,0.7-0.8,0.9-1.9l0-0.1l0-0.1C104.1,198,104.2,197.7,104,197.2z M80.2,258.1
	c-0.5-1-1.1-1.9-1.6-2.8c-1.8-2.8-4-5.2-6.7-7.3c-2.4-1.9-4.8-3.4-7.3-4.4c-1.9-0.8-3.9-1.4-6-1.8c2-3.4,3.9-6.2,5.6-8.6
	c2.2-2.9,4.9-6.2,8.4-9.8c4.8-5.1,9.5-9.1,14-12L80.2,258.1z"/>
<path class="st0" d="M121.6,215.9c-0.1-0.4-0.4-1-1.1-1.4c-0.7-0.4-1.4-0.3-1.8-0.2c-0.7,0.2-1,0.5-1.4,0.9c-0.5,0.5-0.9,1.2-2,2.6
	c-1.3,1.8-2.5,3.6-3.7,6.4c-1.3,3-1.8,6.6-1.9,7.6l-8.2,60.6c-0.3,2.3-0.9,4-1.6,5.1c-0.3,0.5-0.9,1.1-1.7,1.7
	c-0.6,0.5-1.2,1.2-1.3,2.1l0,0c-0.1,0.4,0,0.9,0.1,1.2c0.2,0.5,0.4,0.9,0.7,1.1l1.7,1.8c0,0,0.2,0.2,0.5,0.7
	c0.3,0.4,0.5,0.8,0.9,1.1c0.1,0.1,0.3,0.3,0.5,0.4c0.3,0.1,0.5,0.6,2,0.3c0.8-0.3,1.2-0.7,1.6-1.1c0.8-0.9,1.5-1.9,2.2-3
	c0.9-1.5,1.8-3.4,2.5-5.3c0.8-2.1,1.4-4.9,1.7-6.8c0.2-1.8,3.6-26.2,3.6-26.3l5.3-39.2c0.2-1.6,0.5-3.3,0.8-5.1
	c0.1-0.3,0.3-1.5,0.8-3.7l0-0.1l0-0.1C121.7,216.9,121.8,216.7,121.6,215.9z"/>
<path class="st0" d="M215.4,237c-0.8-2.5-2.1-4.7-3.8-6.5c-4.1-4.3-10-5.2-16.5-3.2c-6.5,2-12.3,6.3-17.4,12.8
	c-5.1,6.4-8.3,13.3-9.2,20.5c-0.6,4.2-0.4,7.9,0.6,11.1c0.8,2.5,2.1,4.7,3.9,6.5c4.1,4.2,10,5.1,16.4,3.1c0.1,0,0.2-0.1,0.3-0.1
	c6.3-2,12-6.2,17.1-12.5c5.2-6.5,8.4-13.4,9.4-20.6C216.5,244,216.4,240.3,215.4,237z M176.8,256.2c0.5-4,2.3-7.9,5.5-11.8
	c3.1-3.9,6.5-6.3,10.2-7.5c4.8-1.4,8.2-0.6,11.5,2.5c1.7,1.6,2.7,3.3,3.4,5.3c0.6,1.8,0.7,3.9,0.4,6.2c-0.7,5.2-2.7,9.7-6,13.7
	c-3.1,3.7-6.4,6-10.1,7.2c-4.7,1.4-8,0.6-11.2-2.4c-1.5-1.5-2.6-3.2-3.2-5.2C176.6,262,176.4,259.3,176.8,256.2z"/>
<path class="st0" d="M256.1,214.9c-0.3-1.2-1.1-2.2-2.1-3c-2.1-1.6-4.8-1.4-7.6-0.6c-3.4,1-6.5,3.2-9.4,6.2
	c-1.3,1.4-2.5,2.8-3.5,4.4c-0.3-0.5-0.7-0.9-1.1-1.4c-0.9-0.9-2.1-1.7-3.6-2.6l-0.1-0.1l-0.2-0.1c-0.4-0.2-1.1-0.3-1.7-0.1
	c-0.9,0.3-1.3,0.8-1.7,1.3c-0.4,0.6-0.6,0.9-0.6,0.9c-0.4,0.5-0.7,1-1.1,1.5l-2.2,2.7c-0.3,0.4-0.6,0.9-0.7,1.4
	c-0.1,0.5-0.1,1,0.1,1.3c0.2,0.9,1.4,1.6,2,1.6c0.9,0.2,1.5,0.4,2,0.6c0.5,0.2,0.6,0.4,0.6,0.3c0.1,0.2,0.2,0.4,0.3,0.7
	c0.2,0.6,0.3,1.5,0.1,2.8l-3.9,28.8c-0.1,0.2-0.4,0.7-1.1,1.4c-0.3,0.3-0.7,0.8-1.3,1.5c-0.5,0.7-0.9,1.2-1.1,2.2
	c-0.1,0.4-0.1,0.9,0.1,1.3c0.3,1.1,1.5,1.7,2.1,1.7c0.6,0,1-0.1,1.4-0.2c1-0.4,1.7-0.7,2.4-0.9c0.6-0.2,1.4-0.5,2.4-0.8
	c0.4-0.1,1.6-0.4,3.3-0.8c0.4-0.1,0.9-0.2,1.5-0.4c0,0,0.1,0,0.1,0c0.9-0.3,2.1-1.1,2.4-2.6c0-0.4,0-0.8-0.1-1.3
	c-0.2-0.5-0.5-1-0.8-1.3l-0.2-0.2l-0.2-0.1c-0.4-0.3-0.8-0.6-1.2-0.8l4-29.3c1.2-2.6,2.7-4.9,4.5-7c2.1-2.5,4-3.8,5.4-4.3
	c0.7-0.2,1.2-0.3,1.4-0.3c0,0,0,0,0.1,0c0,0,0,0.1,0,0.2c-0.1,0.5-0.2,0.9-0.5,1.4c-0.5,0.6-0.7,1.7-0.4,2.2
	c0.6,1.3,1.1,1.3,1.5,1.6c1.3,0.6,2.9,1.1,4.9,0.6c0.6-0.2,1.4-0.6,1.9-1.3c1.3-1.8,2-3.8,2.3-6l0,0
	C256.4,217.1,256.4,216,256.1,214.9z"/>
<path class="st0" d="M293.9,244.2c-0.1-0.2-0.2-0.5-0.3-0.7c-0.1-0.2-0.3-0.6-0.7-1.2c0,0.1,0,0,0-0.2c-0.1-0.3-0.2-0.6-0.2-1
	c-0.1-1.5,0-4.5,0.1-8.9c0.2-4.4,0.2-7.9,0-10.5c-0.2-3.2-0.7-6-1.4-8.3c-0.2-0.6-0.4-1.1-0.6-1.6c-1.5-3.7-4-6.6-7.2-8.1
	c-3.2-1.6-6.9-1.8-10.4-0.7c-3.5,1.1-6.6,2.8-9.3,5c-3.1,2.6-5.1,5.7-5.5,9.1c0,0.2-0.1,0.4,0.1,1.2c0.1,0.3,0.3,0.8,0.9,1.2
	c0.6,0.4,1.5,0.4,1.8,0.2c1-0.4,1-0.6,1.2-0.8c0.7-0.9,1.4-2.4,2.4-3.7l-1-0.7c0,0,0,0,0,0l1,0.7c1-1.4,2-2.2,3-3.1
	c0.6-0.6,2.8-1.8,4.4-2.2c2.5-0.7,4.4-0.4,6.5,1c1.6,1.2,3,3,4.2,5.5c0.1,0.2,0.2,0.5,0.3,0.7c-0.3-0.1-0.6-0.1-0.8-0.2
	c-2.3-0.4-4.8-0.2-7.3,0.5c-5.1,1.6-9.6,4.7-13.6,9.2c-4.1,4.7-6.7,9.9-7.4,15.3c-0.4,2.8-0.3,5.3,0.4,7.5c0.6,2.1,1.9,3.9,3.5,5.2
	c3.3,2.5,7.6,2.8,12.3,1.4c0,0,0.1,0,0.1,0c3.5-1.1,6.9-3.3,10.2-6.6c0.3-0.3,0.7-0.7,1-1c0.3,1.1,1.6,1.7,2.2,1.7
	c0.6,0,1-0.1,1.4-0.2c0.4-0.1,0.7-0.3,1.4-0.6c0.6-0.3,1.1-0.5,1.5-0.6c0.7-0.2,1.4-0.4,2.1-0.5c0.9-0.2,1.2-0.2,1.6-0.3
	c0.8-0.2,2.1-1.1,2.2-2.5l0-0.1l0-0.1C294.1,245,294,244.6,293.9,244.2z M268.3,230.5c2.5-2.8,5-4.6,7.7-5.4c3.5-1.1,5.7-0.8,7,0.1
	c0.6,0.5,1,1,1.3,1.9c0.3,0.9,0.4,2.1,0.1,3.8l0,0c-0.5,3.5-1.8,6.6-4.2,9.5c-2.4,2.9-5.2,4.8-8.6,5.8c-2.9,0.8-4.5,0.5-5.9-0.7
	c-0.7-0.6-1.1-1.3-1.4-2.2c-0.3-1-0.4-2.4-0.2-4.1C264.6,236.2,265.9,233.3,268.3,230.5z"/>
<path class="st0" d="M388.7,214.8c-0.1-0.2-0.2-0.5-0.3-0.7c-0.1-0.3-0.3-0.6-0.7-1.2c0,0.1,0,0,0-0.2c-0.1-0.3-0.1-0.6-0.2-1
	c-0.1-1.5,0-4.5,0.1-8.9c0.2-4.4,0.2-7.9,0-10.5c-0.2-3.2-0.6-6-1.4-8.4c-0.2-0.6-0.4-1.1-0.6-1.6c-1.5-3.7-4-6.6-7.2-8.1
	c-3.2-1.6-6.9-1.8-10.5-0.7c-3.5,1.1-6.6,2.8-9.2,5c-3.1,2.6-5.1,5.7-5.5,9.1c0,0.2-0.1,0.3,0.1,1.2c0.1,0.3,0.3,0.8,0.9,1.2
	c0.6,0.4,1.5,0.4,1.8,0.3c1-0.4,0.9-0.6,1.2-0.8c0.7-0.9,1.4-2.4,2.4-3.7l-1-0.7c0,0,0,0,0,0l1,0.7c1-1.4,2-2.2,3-3.1
	c0.6-0.6,2.8-1.8,4.4-2.2c2.6-0.8,4.4-0.4,6.5,1c1.6,1.2,3.1,3,4.2,5.5c0.1,0.2,0.2,0.5,0.3,0.7c-0.3-0.1-0.6-0.1-0.9-0.2
	c-2.3-0.4-4.8-0.2-7.3,0.6c-5.1,1.6-9.6,4.7-13.6,9.2c-4.2,4.7-6.7,9.9-7.4,15.3c-0.4,2.8-0.3,5.3,0.4,7.5c0.6,2.1,1.9,3.9,3.5,5.2
	c3.3,2.5,7.6,2.8,12.3,1.4c0,0,0.1,0,0.1,0c3.5-1.1,6.9-3.3,10.2-6.6c0.3-0.3,0.7-0.7,1-1c0.3,1.1,1.6,1.7,2.2,1.7
	c0.6,0,1-0.1,1.4-0.2c0.4-0.1,0.7-0.3,1.4-0.6c0.6-0.3,1.1-0.5,1.5-0.6c0.7-0.2,1.4-0.4,2.1-0.5c0.9-0.2,1.2-0.2,1.6-0.3
	c0.8-0.2,2.1-1.1,2.2-2.4l0-0.1l0-0.1C388.9,215.5,388.8,215.1,388.7,214.8z M363.1,201c2.5-2.8,5-4.6,7.7-5.4
	c3.5-1.1,5.7-0.8,7,0.1c0.6,0.5,1,1,1.3,1.9c0.3,0.9,0.4,2.1,0.1,3.8l0,0c-0.5,3.5-1.9,6.6-4.2,9.5c-2.4,2.9-5.2,4.8-8.6,5.8
	c-2.9,0.8-4.5,0.5-5.9-0.7c-0.7-0.6-1.1-1.3-1.4-2.2c-0.3-1-0.4-2.4-0.2-4.1C359.4,206.7,360.7,203.8,363.1,201z"/>
<path class="st0" d="M165.7,248.8c-0.5-1.7-1.3-3.2-2.3-4.4l0,0c-3-3.9-8.1-4.7-13.4-3c-3.4,1.1-6.6,3.3-9.8,6.7
	c-0.5,0.5-1,1-1.4,1.6l2.9-21.4l1.2-9.1c0.2-1.6,0.5-3.3,0.8-5.1c0.1-0.3,0.3-1.5,0.8-3.7c0.1-0.6,0.1-1-0.1-1.7
	c-0.1-0.4-0.4-1-1.1-1.4c-0.7-0.4-1.4-0.3-1.8-0.2c-0.7,0.2-1,0.5-1.4,0.9c-0.5,0.5-0.9,1.2-2,2.6c-1.3,1.8-2.5,3.6-3.7,6.4
	c-1.3,3-1.8,6.6-1.9,7.6l-0.7,4.8l-7.6,55.9c-0.3,2.3-0.9,4-1.6,5.1c-0.3,0.5-0.9,1.1-1.7,1.7c-0.6,0.5-1.2,1.2-1.3,2.1
	c-0.1,0.3,0,0.8,0.1,1.2c0.1,0.4,0.4,0.8,0.7,1.1l1.6,1.7c0,0,0.2,0.2,0.5,0.7c0.3,0.4,0.5,0.8,0.9,1.1c0.1,0.1,0.3,0.3,0.5,0.4
	c0.3,0.1,0.5,0.6,2,0.3c0.8-0.3,1.2-0.7,1.6-1.1c0.8-0.9,1.5-1.8,2.2-3c0.2-0.4,0.5-0.8,0.7-1.2c0.9,0.6,1.9,1.1,2.9,1.3
	c2.3,0.6,4.7,0.4,7.3-0.4c6.5-2,12.2-6.7,16.9-13.7c4.5-6.7,7.3-14.1,8.4-22.2C166.8,255.9,166.7,252,165.7,248.8z M155,252.8
	c0.3,0.6,0.6,1.2,0.9,2c0.6,2.1,0.8,4.9,0.3,8.3c-0.8,5.8-2.7,11.3-5.8,16.5c-3.4,5.7-7,8.9-10.9,10.1c-2.5,0.7-3.7,0.4-4.4-0.2
	c-0.3-0.3-0.6-0.7-0.8-1.3c-0.3-0.9-0.4-2.4-0.1-4.3l2.1-15.2c0.6-4.1,2.1-7.8,4.5-11.2c2.5-3.4,5.2-5.4,8.3-6.4
	C152.4,250.2,153.5,250.6,155,252.8z"/>
<path class="st0" d="M349.5,145c-0.1-0.4-0.4-1-1.1-1.4c-0.7-0.4-1.4-0.3-1.8-0.2c-0.7,0.2-1,0.5-1.4,0.9c-0.5,0.5-0.9,1.2-2,2.6
	c-1.3,1.8-2.5,3.6-3.7,6.4c-1.1,2.6-1.6,5.6-1.9,7l0,0l-3.6,26.8c-0.8-0.3-1.6-0.6-2.4-0.7c-2.2-0.4-4.5-0.1-7.1,0.7
	c-6.2,1.9-11.5,6.4-16,13.2c-4.3,6.3-6.9,13.1-7.9,20.4c-0.6,4.7-0.5,8.8,0.6,12.2c0.6,1.8,1.4,3.5,2.6,4.9c3.2,4.1,8.4,5.2,14,3.5
	c0.1,0,0.2-0.1,0.3-0.1c3-0.9,5.8-2.8,8.4-5.4c1.5-1.5,2.9-3.1,4.1-4.9c0,0,0,0.1,0.1,0.1c0.8,1.5,1.4,2.7,2.7,3.5l0.1,0.1l0.1,0
	c0.5,0.2,1.1,0.5,2.2,0.2c1-0.4,1.4-0.9,1.8-1.4c0.1-0.1,0.3-0.4,0.6-0.8c0.5-0.6,0.8-1.1,1.2-1.5c0.4-0.4,0.8-1,1.4-1.6
	c0.3-0.4,0.6-0.6,0.6-0.6c0.4-0.3,0.9-1,1-1.9c0-0.4,0-0.8-0.1-1.2c-0.3-1-1.2-1.6-1.7-1.7l-0.1,0c-0.9-0.3-1-0.5-1.2-0.9
	c0-0.1-0.1-0.1-0.1-0.2c-0.2-0.6-0.3-1.7-0.1-3.3l7.3-54.1l0,0l1.4-10.5c0.2-1.6,0.5-3.3,0.8-5.1c0.1-0.2,0.3-1.5,0.8-3.7
	C349.6,146,349.7,145.7,349.5,145z M310.2,216.2c0.7-4.7,2.4-9.3,5.3-13.8c3.1-4.7,6.3-7.3,9.4-8.3c0,0,0,0,0,0
	c2.9-0.9,4.5-0.6,5.7,0.3c0.6,0.5,1,1,1.3,1.9c0.3,1,0.4,2.4,0.2,4.3L330,217c-0.5,3.6-1.8,6.6-4.1,9.4c-2.1,2.5-4.3,4-6.7,4.8
	c-4,1.1-5.6,0.4-7.5-2.4c-0.4-0.7-0.8-1.5-1-2.4C309.8,223.9,309.6,220.5,310.2,216.2z"/>
<g>
	<path class="st1" d="M197.6,182.9L184,192c0,0-4.4,2.8-4.7,10c-0.3,7.2,8.9,15.2,8.9,15.2s-5.4,0.9-10.9-6.1
		c-5.5-6.9-3.5-14-3.5-14l30.2-21.6c0,0,9.7-1.6,9.6,10c0,0-5-5.6-8.8-5.1C200.9,180.9,197.6,182.9,197.6,182.9z"/>
	<path class="st1" d="M323.6,75c-7.1,4.9-20.7-0.2-29.6,4.5c-12.2,7.6-18.1,21.8-4.4,43.1c-25.9,17.2-54.2,35.4-77.4,53.1
		c1.5,3.5,7.2,11.8,7.5,12.1c0-0.1-4.4-10.5-4.1-11.6c0.3-1,5.5,6.1,5.9,5.1c0.3-0.7-3-6.4-2.7-7c0.4-0.8,4.5,3.5,4.9,2.8
		c10.1-16.6,38.7-34.2,61.9-48.2c2-1.2,4-2.3,6-3.4c0.6,0.8,1.2,1.7,1.9,2.5c25.6,33.8,63.4,1.3,46.3-17.5
		c-1.6-1.7-7.9-9.8-10.5-11.3l0,0c-2.2-1.7-5-2.7-7.9-2.5c-5.9,0.3-10.1,5.1-10,11c-4.2,2.9-8.5,5.8-12.9,8.8
		c-2.3-4.1-3.7-7.8-3.8-10c-0.3-7.9,1.4-13,5.9-16.8c4.4-3.8,10.7-4.1,24.6-11.6c13.9-7.5,12.9-23.5,20.6-27.7
		c13.9-6.8,40.1,2.9,49,33.7c5.3,18.3-8.3,25.4-18.4,11.3c-0.4-0.6-19.5-30-20.1-29.5c-0.6,0.4,3.1,5.9,6.2,11.5
		c1.8,3.3,12,21.4,12.6,22.6c9.5,21,33.4,7.3,33.6-15.5c0.2-30.3-37.4-69.4-64.5-52.7C334.1,38.1,332.3,69,323.6,75z M306.4,118.2
		c0.5-0.2,0.9-0.5,1.3-0.7c0.5-0.3,1-0.5,1.5-0.8c0.6-0.3,1.2-0.7,1.8-1c0.9-0.5,1.7-1,2.4-1.5c2.3,3.7,6.5,6.2,11,5.9
		c4.8-0.3,8.5-3.6,9.6-8c0.2-0.2,0.3-0.3,0.4-0.2c6.2,9.2,5.2,19.2-6.7,23.4c-10,3.5-20.2-5.5-26.6-14.6
		C303,119.9,304.8,119,306.4,118.2z"/>
	<path class="st1" d="M222.6,179.2"/>
</g>
<g>
	<path class="st2" d="M203.8,167.9l-13,9.5c0,0-4.3,2.9-4.3,10c0,7.1,9.5,14.6,9.5,14.6s-5.3,1.1-11-5.6c-5.7-6.6-4.1-13.7-4.1-13.7
		l29-22.5c0,0,9.6-2,9.9,9.5c0,0-5.1-5.3-8.9-4.7C207,165.8,203.8,167.9,203.8,167.9z"/>
	<path class="st2" d="M324.1,56.4c-6.9,5.1-20.5,0.6-29.1,5.6c-11.8,8-17,22.2-2.5,42.8c-24.9,18-52.2,37.1-74.4,55.5
		c1.6,3.5,7.6,11.4,7.9,11.7c0-0.1-4.8-10.2-4.6-11.3c0.3-1,5.7,5.8,6.1,4.8c0.3-0.7-3.3-6.2-3-6.8c0.4-0.8,4.6,3.3,5,2.6
		c9.3-16.8,36.9-35.3,59.3-50c1.9-1.3,3.9-2.5,5.8-3.6c0.6,0.8,1.3,1.6,1.9,2.4c26.8,32.4,62.8-1.1,45.1-19.1
		c-1.6-1.7-8.2-9.4-10.8-10.7l0,0c-2.3-1.6-5.1-2.4-7.9-2.2c-5.8,0.5-9.8,5.4-9.4,11.2c-4,3-8.2,6.1-12.4,9.2
		c-2.5-3.9-4-7.6-4.2-9.8c-0.6-7.8,0.9-12.9,5.1-16.8c4.2-3.9,10.4-4.5,23.8-12.4c13.4-7.9,11.8-23.7,19.3-28.2
		c13.4-7.2,39.8,1.3,49.9,31.4c6,17.9-7.2,25.4-17.7,11.9c-0.4-0.6-20.5-28.9-21.1-28.4c-0.6,0.4,3.4,5.7,6.6,11.1
		c1.9,3.2,12.8,20.7,13.4,21.9c10.2,20.4,33.4,5.9,32.6-16.6c-1-29.9-39.9-67.2-66-49.6C332.9,19.6,332.5,50.2,324.1,56.4z
		 M308.8,99.8c0.4-0.2,0.9-0.5,1.3-0.7c0.5-0.3,1-0.6,1.5-0.8c0.6-0.3,1.2-0.7,1.7-1c0.8-0.5,1.6-1,2.3-1.5
		c2.5,3.6,6.7,5.8,11.1,5.4c4.8-0.5,8.3-3.8,9.2-8.2c0.2-0.2,0.3-0.3,0.4-0.2c6.5,8.9,5.9,18.8-5.7,23.4
		c-9.7,3.8-20.2-4.6-26.9-13.4C305.6,101.6,307.3,100.6,308.8,99.8z"/>
	<path class="st2" d="M228.4,163.3"/>
</g>
</svg>
